<svg xmlns="http://www.w3.org/2000/svg" xmlns:ev="http://www.w3.org/2001/xml-events" xmlns:xlink="http://www.w3.org/1999/xlink" width="32in" height="2352" class="st24" color-interpolation-filters="sRGB" viewBox="0 0 2304 1764" xml:space="preserve"><style type="text/css">.st1{fill:#fff;stroke:#000;stroke-width:.75}.st2{fill:#759fcc;font-family:Calibri;font-size:1.00001em}.st3{fill:#4672c4;stroke:#c8c8c8;stroke-width:.25}.st4{fill:#feffff;font-family:Calibri;font-size:.833336em}.st5{font-size:1em}.st6{fill:#3c63ac;stroke:#31528f;stroke-width:.75}.st7{fill:#feffff;font-family:Calibri;font-size:.75em}.st8,.st9{stroke:#4672c4}.st8{marker-end:url(#mrkr4-22);stroke-linecap:round;stroke-linejoin:round;stroke-width:1}.st9{fill:#4672c4;fill-opacity:1;stroke-opacity:1;stroke-width:.28409090909091}.st10{fill:#feffff;font-family:Calibri;font-size:.666664em}.st11{fill:#fff;stroke:none;stroke-linecap:butt;stroke-width:7.2}.st12{fill:#3c63ac;font-family:Calibri;font-size:.666664em}.st13{font-size:1em;font-weight:700}.st14{marker-end:url(#mrkr4-22);stroke:#4672c4;stroke-dasharray:3,3;stroke-linecap:round;stroke-linejoin:round;stroke-width:1}.st15{fill:#70ad47}.st15,.st16,.st17,.st18{stroke:#c8c8c8;stroke-width:.25}.st16{fill:#759fcc}.st17{fill:#ed7d31}.st18{fill:#fec000}.st19{fill:url(#grad0-221)}.st20{stroke:#3d64ac;stroke-width:.75}.st21{fill:#3d64ac;font-family:Calibri;font-size:.666664em}.st22{fill:none;stroke:none;stroke-width:.25}.st23{fill:#4672c4;font-family:Calibri;font-size:.666664em}.st24{fill:none;fill-rule:evenodd;font-size:12px;overflow:visible;stroke-linecap:square;stroke-miterlimit:3}</style><defs id="Patterns_And_Gradients"><linearGradient id="grad0-221" x1="0" x2="1" y1="0" y2="0" gradientTransform="rotate(60 0.5 0.5)"><stop offset="0" stop-color="#e8ebf4" stop-opacity="1"/><stop offset=".24" stop-color="#f4f5f9" stop-opacity="1"/><stop offset=".54" stop-color="#feffff" stop-opacity="1"/></linearGradient></defs><defs id="Markers"><g id="lend4"><path d="M 2 1 L 0 0 L 2 -1 L 2 1" style="stroke:none"/></g><marker id="mrkr4-22" class="st9" markerUnits="strokeWidth" orient="auto" overflow="visible" refX="-7.04"><use transform="scale(-3.52,-3.52)" xlink:href="#lend4"/></marker></defs><g><title>Page-1</title><g id="shape1102-1" transform="translate(418.5,-1283.77)"><title>Sheet.1102</title><desc>Legend</desc><rect width="140.062" height="480.234" x="0" y="1283.77" class="st1"/><text x="2" y="1296.57" class="st2">Legend</text></g><g id="shape1066-4" transform="translate(1111.5,-882.562)"><title>Sheet.1066</title><desc>3) Explorer (Determines the best scaling factor and bit width...</desc><rect width="499.5" height="193.5" x="0" y="1570.5" class="st3"/><text x="227.58" y="1581.5" class="st4">3) Explorer <tspan x="178.67" class="st5" dy="2.4em">(Determines the best scaling factor </tspan><tspan x="186.1" class="st5" dy="1.2em">and bit width for each variable)</tspan></text></g><g id="shape1006-9" transform="translate(1026,-1570.5)"><title>Sheet.1006</title><desc>SeeDot-dev.py</desc><rect width="108" height="41.333" x="0" y="1722.67" class="st3"/><text x="24.28" y="1746.33" class="st4">SeeDot-dev.py</text></g><g id="shape1-12" transform="translate(1044,-1647)"><title>Start/End</title><path d="M13.5 1764 L58.5 1764 A13.5 13.5 -180 0 0 58.5 1737 L13.5 1737 A13.5 13.5 -180 1 0 13.5 1764 Z" class="st6"/></g><g id="shape1004-14" transform="translate(1044,-1498.5)"><title>Process.1004</title><desc>main.py</desc><rect width="72" height="36" x="0" y="1728" class="st3"/><text x="21.32" y="1748.7" class="st7">main.py</text></g><g id="shape1008-17" transform="translate(1071,-1498.5)"><title>Dynamic connector.1008</title><path d="M9 1764 L9 1792.96" class="st8"/></g><g id="shape1007-23" transform="translate(1044,-1408.5)"><title>Decision.1007</title><desc>Encoding</desc><path d="M0 1737 L36 1710 L72 1737 L36 1764 L0 1737 Z" class="st6"/><text x="21.14" y="1739.4" class="st10">Encoding</text></g><g id="shape1010-26" transform="translate(1044,-1435.5)"><title>Dynamic connector.1010</title><desc>Float</desc><path d="M0 1764 L-238.5 1764 L-238.5 1833.46" class="st8"/><rect width="16.242" height="9.6" x="-165.621" y="1759.2" class="st11"/><text x="-165.62" y="1766.4" class="st12">Float</text></g><g id="shape1009-33" transform="translate(769.5,-1305)"><title>Process.1009</title><desc>Run for Float</desc><rect width="72" height="54" x="0" y="1710" class="st3"/><text x="14.97" y="1739.4" class="st10">Run for Float</text></g><g id="shape1012-36" transform="translate(1116,-1435.5)"><title>Dynamic connector.1012</title><desc>Fixed</desc><path d="M0 1764 L238.5 1764 L238.5 1783.96" class="st8"/><rect width="17.16" height="9.6" x="124.17" y="1759.2" class="st11"/><text x="124.17" y="1766.4" class="st12">Fixed</text></g><g id="shape1011-43" transform="translate(1318.5,-1354.5)"><title>Process.1011</title><desc>Run for Fixed</desc><rect width="72" height="54" x="0" y="1710" class="st3"/><text x="14.51" y="1739.4" class="st10">Run for Fixed</text></g><g id="shape1014-46" transform="translate(769.5,-1332)"><title>Dynamic connector.1014</title><path d="M0 1764 L-193.5 1764 L-193.5 1822.77" class="st8"/></g><g id="shape1013-51" transform="translate(540,-1212.19)"><title>Process.1013</title><desc>1) Converter (Runs the Floating-point quantizer for the Testi...</desc><rect width="72" height="54" x="0" y="1710" class="st3"/><text x="15.6" y="1720.2" class="st10">1) Converter<tspan x="5.36" class="st5" dy="2.4em">(Runs the Floating</tspan>-<tspan x="5.45" class="st5" dy="1.2em">point quantizer for </tspan><tspan x="3.38" class="st5" dy="1.2em">the </tspan><tspan class="st13">Testing </tspan>dataset)</text></g><g id="shape1016-58" transform="translate(567,-1216.69)"><title>Dynamic connector.1016</title><path d="M9 1764 L9 1857.65" class="st14"/></g><g id="shape1015-63" transform="translate(540,-1008)"><title>Process.1015</title><desc>Quantizer (Converts the input files to the format required by...</desc><rect width="72" height="108" x="0" y="1656" class="st15"/><text x="19.97" y="1674" class="st10">Quantizer<tspan x="4.55" class="st5" dy="2.4em">(Converts the input </tspan><tspan x="6.62" class="st5" dy="1.2em">files to the format </tspan><tspan x="10.86" class="st5" dy="1.2em">required by the </tspan><tspan x="9.05" class="st5" dy="1.2em">SeeDot compiler </tspan><tspan x="5.41" class="st5" dy="1.2em">based on the input </tspan><tspan x="8.45" class="st5" dy="1.2em">SeeDot code and </tspan><tspan x="22.62" class="st5" dy="1.2em">dataset)</tspan></text></g><g id="shape1017-73" transform="translate(769.5,-1212.19)"><title>Process.1017</title><desc>2) Compiler (Generates the SeeDot’s target files)</desc><rect width="72" height="54" x="0" y="1710" class="st3"/><text x="17.1" y="1725" class="st10">2) Compiler<tspan x="11.64" class="st5" dy="2.4em">(Generates the </tspan><tspan x="2.21" class="st5" dy="1.2em">SeeDot</tspan>’s target files)</text></g><g id="shape1020-78" transform="translate(805.5,-1212.19)"><title>Dynamic connector.1020</title><path d="M0 1764 L0 1869.19 L-94.5 1869.19 L-94.5 1880.15" class="st14"/></g><g id="shape1019-83" transform="translate(675,-1017)"><title>Process.1019</title><desc>1) Ast Generator (Genrataes the Ast by reading the input file...</desc><rect width="72" height="72" x="0" y="1692" class="st15"/><text x="8.97" y="1706.4" class="st10">1) Ast Generator<tspan x="5.59" class="st5" dy="2.4em">(Genrataes the Ast </tspan><tspan x="3.08" class="st5" dy="1.2em">by reading the input </tspan><tspan x="6.49" class="st5" dy="1.2em">files and performs </tspan><tspan x="6.9" class="st5" dy="1.2em">the type infernce)</tspan></text></g><g id="shape1022-90" transform="translate(796.5,-1212.19)"><title>Dynamic connector.1022</title><path d="M9 1764 L9 1880.15" class="st14"/></g><g id="shape1021-95" transform="translate(769.5,-1017)"><title>Process.1021</title><desc>2) IR Builder (Converts the Ast to an IR which is a series of...</desc><rect width="72" height="72" x="0" y="1692" class="st15"/><text x="16.17" y="1701.6" class="st10">2) IR Builder<tspan x="3.54" class="st5" dy="2.4em">(Converts the Ast to </tspan><tspan x="11.12" class="st5" dy="1.2em">an IR which is a </tspan><tspan x="7.86" class="st5" dy="1.2em">series of function </tspan><tspan x="4.98" class="st5" dy="1.2em">calls to process the </tspan><tspan x="27.51" class="st5" dy="1.2em">data)</tspan></text></g><g id="shape1024-103" transform="translate(805.5,-1212.19)"><title>Dynamic connector.1024</title><path d="M0 1764 L0 1869.19 L94.5 1869.19 L94.5 1880.15" class="st14"/></g><g id="shape1023-108" transform="translate(864,-1017)"><title>Process.1023</title><desc>3) Code Generator (Prints the floating-point inference code i...</desc><rect width="72" height="72" x="0" y="1692" class="st15"/><text x="5.86" y="1706.4" class="st10">3) Code Generator<tspan x="4.53" class="st5" dy="2.4em">(Prints the floating</tspan>-<tspan x="2.33" class="st5" dy="1.2em">point inference code </tspan><tspan x="2.16" class="st5" dy="1.2em">in x86 and the target </tspan><tspan x="9.65" class="st5" dy="1.2em">device</tspan>’s format)</text></g><g id="shape1025-115" transform="translate(994.5,-1203.19)"><title>Process.1025</title><desc>3) Predictor (Compiles and Runs the Inference x86 CPP code an...</desc><rect width="72" height="72" x="0" y="1692" class="st3"/><text x="16.85" y="1706.4" class="st10">3) Predictor <tspan x="3.99" class="st5" dy="2.4em">(Compiles and Runs </tspan><tspan x="7.48" class="st5" dy="1.2em">the Inference x86 </tspan><tspan x="13.91" class="st5" dy="1.2em">CPP code and </tspan><tspan x="2.47" class="st5" dy="1.2em">provides the output)</tspan></text></g><g id="shape1029-122" transform="translate(441,-1217.25)"><title>Data.1029</title><desc>User Provided Input Files</desc><path d="M-10.97 1764 L47.53 1764 L69.47 1720.12 L10.97 1720.12 L-10.97 1764 Z" class="st16"/><text x="21.73" y="1734.86" class="st10">User <tspan x="14.76" class="st5" dy="1.2em">Provided </tspan><tspan x="12.46" class="st5" dy="1.2em">Input Files</tspan></text></g><g id="shape1030-127" transform="translate(499.5,-1230.19)"><title>Dynamic connector.1030</title><path d="M0 1755 L33.46 1755" class="st8"/></g><g id="shape1032-132" transform="translate(612,-1230.19)"><title>Dynamic connector.1032</title><path d="M0 1755 L33.46 1755" class="st8"/></g><g id="shape1031-137" transform="translate(652.5,-1217.25)"><title>Data.1031</title><desc>Processed Files</desc><path d="M-10.97 1764 L47.53 1764 L69.47 1720.12 L10.97 1720.12 L-10.97 1764 Z" class="st3"/><text x="12.78" y="1739.66" class="st10">Processed <tspan x="22.02" class="st5" dy="1.2em">Files</tspan></text></g><g id="shape1033-141" transform="translate(711,-1230.19)"><title>Dynamic connector.1033</title><path d="M0 1755 L51.46 1755" class="st8"/></g><g id="shape1034-146" transform="translate(893.25,-1212.75)"><title>Data.1034</title><desc>X86 Codes</desc><path d="M-10.97 1764 L47.53 1764 L69.47 1720.12 L10.97 1720.12 L-10.97 1764 Z" class="st3"/><text x="12.32" y="1744.46" class="st10">X86 Codes</text></g><g id="shape1035-149" transform="translate(951.75,-1225.69)"><title>Dynamic connector.1035</title><path d="M0 1755 L35.71 1755" class="st8"/></g><g id="shape1037-154" transform="translate(861.75,-1125)"><title>Data.1037</title><desc>Target Device Inference Codes (non x86)</desc><path d="M-13.92 1764 L60.33 1764 L88.17 1708.31 L13.92 1708.31 L-13.92 1764 Z" class="st17"/><text x="14.89" y="1724.16" class="st10">Target Device <tspan x="21.64" class="st5" dy="1.2em">Inference </tspan><tspan x="18.8" class="st5" dy="1.2em">Codes (non </tspan><tspan x="30.12" class="st5" dy="1.2em">x86)</tspan></text></g><g id="shape1038-160" transform="translate(1086.75,-1117.41)"><title>Data.1038</title><desc>Profiler Data</desc><path d="M-17.3 1764 L83.95 1764 L118.55 1694.81 L17.3 1694.81 L-17.3 1764 Z" class="st18"/><text x="30.08" y="1731.81" class="st10">Profiler Data</text></g><g id="shape1043-163" transform="translate(1048.5,-1239.19)"><title>Dynamic connector.1043</title><path d="M0 1764 L88.88 1764 L88.88 1809.55" class="st8"/></g><g id="shape1048-168" transform="translate(1318.5,-1242)"><title>Process.1048</title><desc>1) Profiler (Collects Data to be Used in Exploration)</desc><rect width="72" height="54" x="0" y="1710" class="st3"/><text x="19.84" y="1725" class="st10">1) Profiler<tspan x="4.24" class="st5" dy="2.4em">(Collects Data to be </tspan><tspan x="3.14" class="st5" dy="1.2em">Used in Exploration)</tspan></text></g><g id="shape1049-173" transform="translate(1345.5,-1354.5)"><title>Dynamic connector.1049</title><path d="M9 1764 L9 1815.46" class="st8"/></g><g id="shape1050-178" transform="translate(1318.5,-1269)"><title>Dynamic connector.1050</title><path d="M0 1764 L-18 1764 L-18 1701 L-469.96 1701" class="st8"/></g><g id="shape1055-183" transform="translate(1345.5,-1242)"><title>Dynamic connector.1055</title><path d="M9 1764 L9 1792.96" class="st8"/></g><g id="shape1054-188" transform="translate(1318.5,-1116)"><title>Process.1054</title><desc>2) Converter (Converts the Input code to a format required by...</desc><rect width="72" height="90" x="0" y="1674" class="st3"/><text x="15.6" y="1687.8" class="st10">2) Converter <tspan x="4.46" class="st5" dy="2.4em">(Converts the Input </tspan><tspan x="8.85" class="st5" dy="1.2em">code to a format </tspan><tspan x="10.86" class="st5" dy="1.2em">required by the </tspan><tspan x="5.71" class="st5" dy="1.2em">Explorer, based on </tspan><tspan x="16.13" class="st5" dy="1.2em">the </tspan><tspan class="st13">Training </tspan><tspan x="22.62" class="st5" dy="1.2em">dataset)</tspan></text></g><g id="shape1058-198" transform="translate(1458,-1139.06)"><title>Data.1058</title><desc>User Provided Input Files</desc><path d="M-10.97 1764 L47.53 1764 L69.47 1720.12 L10.97 1720.12 L-10.97 1764 Z" class="st16"/><text x="21.73" y="1734.86" class="st10">User <tspan x="14.76" class="st5" dy="1.2em">Provided </tspan><tspan x="12.46" class="st5" dy="1.2em">Input Files</tspan></text></g><g id="shape1059-203" transform="translate(1458,-1152)"><title>Dynamic connector.1059</title><path d="M0 1755 L-60.46 1755" class="st8"/></g><g id="shape1060-208" transform="translate(839.25,-1245.94)"><title>Dynamic connector.1060</title><path d="M0 1770.75 L0 1775.25 L44.71 1775.25" class="st8"/></g><g id="shape1061-213" transform="translate(805.5,-1212.19)"><title>Dynamic connector.1061</title><path d="M0 1764 L0 1777.5 L93.37 1777.5 L93.37 1788.46" class="st8"/></g><g id="shape1062-218" transform="translate(1138.5,-927)"><title>Subprocess.1062</title><desc>Stage I Determining the scale of input ‘X’</desc><path d="M0 1764 L72 1764 L72 1692 L0 1692 L0 1764 Z" class="st19"/><path d="M0 1764 L72 1764 L72 1692 L0 1692 L0 1764" class="st20"/><path d="M9 1764 L9 1692" class="st20"/><path d="M63 1764 L63 1692" class="st20"/><text x="25.12" y="1711.2" class="st21">Stage I<tspan x="15.71" class="st5" dy="2.4em">Determining </tspan><tspan x="17.35" class="st5" dy="1.2em">the scale of </tspan><tspan x="22.46" class="st5" dy="1.2em">input </tspan>‘X’</text></g><g id="shape1063-229" transform="translate(1260,-927)"><title>Subprocess.1063</title><desc>Stage II Determining the scale of non-‘X’ variables</desc><path d="M0 1764 L72 1764 L72 1692 L0 1692 L0 1764 Z" class="st19"/><path d="M0 1764 L72 1764 L72 1692 L0 1692 L0 1764" class="st20"/><path d="M9 1764 L9 1692" class="st20"/><path d="M63 1764 L63 1692" class="st20"/><text x="24.11" y="1706.4" class="st21">Stage II<tspan x="15.71" class="st5" dy="2.4em">Determining </tspan><tspan x="17.35" class="st5" dy="1.2em">the scale of </tspan><tspan x="24.39" class="st5" dy="1.2em">non</tspan>-‘X’ <tspan x="21.47" class="st5" dy="1.2em">variables</tspan></text></g><g id="shape1064-240" transform="translate(1381.5,-927)"><title>Subprocess.1064</title><desc>Stage III Demoting variable from 16-bit to 8-bit one at a time</desc><path d="M0 1764 L72 1764 L72 1692 L0 1692 L0 1764 Z" class="st19"/><path d="M0 1764 L72 1764 L72 1692 L0 1692 L0 1764" class="st20"/><path d="M9 1764 L9 1692" class="st20"/><path d="M63 1764 L63 1692" class="st20"/><text x="23.11" y="1706.4" class="st21">Stage III<tspan x="20" class="st5" dy="2.4em">Demoting </tspan><tspan x="14.21" class="st5" dy="1.2em">variable from </tspan><tspan x="13.49" class="st5" dy="1.2em">16</tspan>-bit to 8-bit <tspan x="14.47" class="st5" dy="1.2em">one at a time</tspan></text></g><g id="shape1065-251" transform="translate(1503,-927)"><title>Subprocess.1065</title><desc>Stage IV Cumulatively demoting variable to reduce latency and...</desc><path d="M0 1764 L72 1764 L72 1692 L0 1692 L0 1764 Z" class="st19"/><path d="M0 1764 L72 1764 L72 1692 L0 1692 L0 1764" class="st20"/><path d="M9 1764 L9 1692" class="st20"/><path d="M63 1764 L63 1692" class="st20"/><text x="22.85" y="1701.6" class="st21">Stage IV<tspan x="14.85" class="st5" dy="2.4em">Cumulatively </tspan><tspan x="20.36" class="st5" dy="1.2em">demoting </tspan><tspan x="18.69" class="st5" dy="1.2em">variable to </tspan><tspan x="12.06" class="st5" dy="1.2em">reduce latency </tspan><tspan x="11.71" class="st5" dy="1.2em">and model size</tspan></text></g><g id="shape1067-263" transform="translate(1345.5,-1116)"><title>Dynamic connector.1067</title><path d="M9 1764 L9 1796.9" class="st8"/></g><g id="shape1068-268" transform="translate(1507,-892.5)"><title>Sheet.1068</title><desc>Each stage makes multiple calls to Compiler and Predictor</desc><rect width="100" height="12" x="0" y="1752" class="st22"/><text x="6.97" y="1750.8" class="st23">Each stage makes multiple <tspan x="15.95" class="st5" dy="1.2em">calls to Compiler and </tspan><tspan x="34.99" class="st5" dy="1.2em">Predictor</tspan></text></g><g id="shape1069-273" transform="translate(1021.5,-801)"><title>Data.1069</title><desc>Scaling factor and bitwidth assignments for each variable</desc><path d="M-13.5 1764 L58.5 1764 L85.5 1710 L13.5 1710 L-13.5 1764 Z" class="st3"/><text x="14.16" y="1720.2" class="st10">Scaling factor <tspan x="15.3" class="st5" dy="1.2em">and bitwidth </tspan><tspan x="15.86" class="st5" dy="1.2em">assignments </tspan><tspan x="22.67" class="st5" dy="1.2em">for each </tspan><tspan x="23.04" class="st5" dy="1.2em">variable</tspan></text></g><g id="shape1070-280" transform="translate(1128.38,-1117.41)"><title>Dynamic connector.1070</title><path d="M9 1764 L9 1798.3" class="st8"/></g><g id="shape1071-285" transform="translate(1111.5,-979.312)"><title>Dynamic connector.1071</title><path d="M0 1764 L-54 1764 L-54 1881.27" class="st8"/></g><g id="shape1073-290" transform="translate(1352.25,-882.562)"><title>Dynamic connector.1073</title><path d="M9 1764 L9 1784.52" class="st8"/></g><g id="shape1072-295" transform="translate(1325.25,-783)"><title>Process.1072</title><desc>4) Converter (Convert the Input files and Testing dataset to ...</desc><rect width="72" height="72" x="0" y="1692" class="st3"/><text x="15.6" y="1706.4" class="st10">4) Converter<tspan x="6.02" class="st5" dy="2.4em">(Convert the Input </tspan><tspan x="9.46" class="st5" dy="1.2em">files and </tspan><tspan class="st13">Testing </tspan><tspan x="6.85" class="st5" dy="1.2em">dataset to SeeDot </tspan><tspan x="23.61" class="st5" dy="1.2em">format)</tspan></text></g><g id="shape1074-303" transform="translate(1206,-797.062)"><title>Data.1074</title><desc>User provided input files</desc><path d="M-10.97 1764 L47.53 1764 L69.47 1720.12 L10.97 1720.12 L-10.97 1764 Z" class="st16"/><text x="21.73" y="1734.86" class="st10">User <tspan x="14.73" class="st5" dy="1.2em">provided </tspan><tspan x="13.17" class="st5" dy="1.2em">input files</tspan></text></g><g id="shape1076-308" transform="translate(1325.25,-684)"><title>Process.1076</title><desc>5) Compiler</desc><rect width="72" height="54" x="0" y="1710" class="st3"/><text x="17.1" y="1739.4" class="st10">5) Compiler</text></g><g id="shape1079-311" transform="translate(1327.5,-585)"><title>Process.1079</title><desc>6) Predictor</desc><rect width="72" height="54" x="0" y="1710" class="st3"/><text x="16.85" y="1739.4" class="st10">6) Predictor</text></g><g id="shape1082-314" transform="translate(1397.25,-810)"><title>Dynamic connector.1082</title><path d="M0 1755 L62.71 1755" class="st8"/></g><g id="shape1081-319" transform="translate(1467,-792)"><title>Data.1081</title><desc>Processed input files</desc><path d="M-13.5 1764 L58.5 1764 L85.5 1710 L13.5 1710 L-13.5 1764 Z" class="st3"/><text x="19.53" y="1734.6" class="st10">Processed <tspan x="19.92" class="st5" dy="1.2em">input files</tspan></text></g><g id="shape1083-323" transform="translate(1503,-792)"><title>Dynamic connector.1083</title><path d="M0 1764 L0 1800 L-141.75 1800 L-141.75 1810.96" class="st8"/></g><g id="shape1084-328" transform="translate(1264.5,-810)"><title>Dynamic connector.1084</title><path d="M0 1755 L53.71 1755" class="st8"/></g><g id="shape1085-333" transform="translate(1057.5,-801)"><title>Dynamic connector.1085</title><path d="M0 1764 L0 1854 L260.71 1854" class="st8"/></g><g id="shape1087-338" transform="translate(1397.25,-702)"><title>Dynamic connector.1087</title><path d="M0 1755 L28.96 1755" class="st8"/></g><g id="shape1086-343" transform="translate(1433.25,-684)"><title>Data.1086</title><desc>X86 inference code</desc><path d="M-13.5 1764 L58.5 1764 L85.5 1710 L13.5 1710 L-13.5 1764 Z" class="st3"/><text x="29.87" y="1729.8" class="st10">X86 <tspan x="20.6" class="st5" dy="1.2em">inference </tspan><tspan x="28.11" class="st5" dy="1.2em">code</tspan></text></g><g id="shape1088-348" transform="translate(1469.25,-684)"><title>Dynamic connector.1088</title><path d="M0 1764 L0 1791 L-105.75 1791 L-105.75 1801.96" class="st8"/></g><g id="shape1090-353" transform="translate(1354.5,-585)"><title>Dynamic connector.1090</title><path d="M9 1764 L9 1783.96" class="st8"/></g><g id="shape1089-358" transform="translate(1327.5,-531)"><title>Start/End.1089</title><path d="M13.5 1764 L58.5 1764 A13.5 13.5 -180 0 0 58.5 1737 L13.5 1737 A13.5 13.5 -180 1 0 13.5 1764 Z" class="st6"/></g><g id="shape1091-360" transform="translate(1183.5,-643.5)"><title>Data.1091</title><desc>Target Device inference code</desc><path d="M-13.5 1764 L58.5 1764 L85.5 1710 L13.5 1710 L-13.5 1764 Z" class="st17"/><text x="25.53" y="1725" class="st10">Target <tspan x="25.14" class="st5" dy="1.2em">Device </tspan><tspan x="20.6" class="st5" dy="1.2em">inference </tspan><tspan x="28.11" class="st5" dy="1.2em">code</tspan></text></g><g id="shape1092-366" transform="translate(1361.25,-686.25)"><title>Dynamic connector.1092</title><path d="M0 1766.25 L0 1779.75 L-98.71 1779.75" class="st8"/></g><g id="shape1093-371" transform="translate(1071,-1647)"><title>Dynamic connector.1093</title><path d="M9 1764 L9 1792.96" class="st8"/></g><g id="shape1094-376" transform="translate(1071,-1570.5)"><title>Dynamic connector.1094</title><path d="M9 1764 L9 1792.96" class="st8"/></g><g id="shape1095-381" transform="translate(472.5,-1714.5)"><title>Data.1095</title><desc>User Input</desc><path d="M-6.75 1764 L29.25 1764 L42.75 1737 L6.75 1737 L-6.75 1764 Z" class="st16"/><text x="10.48" y="1748.1" class="st10">User <tspan x="9.35" class="st5" dy="1.2em">Input</tspan></text></g><g id="shape1096-385" transform="translate(454.5,-1562.77)"><title>Data.1096</title><desc>Target Device Dependent Outputs</desc><path d="M-13.5 1764 L58.5 1764 L85.5 1710 L13.5 1710 L-13.5 1764 Z" class="st17"/><text x="25.53" y="1725" class="st10">Target <tspan x="25.14" class="st5" dy="1.2em">Device </tspan><tspan x="17.82" class="st5" dy="1.2em">Dependent </tspan><tspan x="22.8" class="st5" dy="1.2em">Outputs</tspan></text></g><g id="shape1097-391" transform="translate(445.5,-1508.77)"><title>Data.1097</title><desc>Intermediate Output</desc><path d="M-9 1764 L65.25 1764 L83.25 1728 L9 1728 L-9 1764 Z" class="st3"/><text x="15.84" y="1743.6" class="st10">Intermediate <tspan x="25.49" class="st5" dy="1.2em">Output</tspan></text></g><g id="shape1098-395" transform="translate(445.5,-1436.77)"><title>Decision.1098</title><desc>Input argument based decision</desc><path d="M0 1737 L36 1710 L72 1737 L36 1764 L0 1737 Z" class="st6"/><text x="10.52" y="1734.6" class="st10">Input argument <tspan x="12.03" class="st5" dy="1.2em">based decision</tspan></text></g><g id="shape1099-399" transform="translate(459,-1391.77)"><title>Process.1099</title><desc>Process</desc><rect width="48" height="36" x="0" y="1728" class="st3"/><text x="11.62" y="1748.4" class="st10">Process</text></g><g id="shape1100-402" transform="translate(456,-1342.27)"><title>Subprocess.1100</title><desc>Subprocess</desc><path d="M0 1764 L60 1764 L60 1728 L0 1728 L0 1764 Z" class="st19"/><path d="M0 1764 L60 1764 L60 1728 L0 1728 L0 1764" class="st20"/><path d="M9 1764 L9 1728" class="st20"/><path d="M51 1764 L51 1728" class="st20"/><text x="11.54" y="1748.4" class="st21">Subprocess</text></g><g id="shape1101-409" transform="translate(454.5,-1292.77)"><title>Process.1101</title><desc>Explanation Of Process</desc><rect width="72" height="36" x="0" y="1728" class="st15"/><text x="16.89" y="1743.6" class="st10">Explanation <tspan x="18.85" class="st5" dy="1.2em">Of Process</tspan></text></g><g id="shape1103-413" transform="translate(454.5,-1638)"><title>Data.1103</title><desc>Encoding Dependent Outputs</desc><path d="M-13.5 1764 L58.5 1764 L85.5 1710 L13.5 1710 L-13.5 1764 Z" class="st18"/><text x="21.14" y="1729.8" class="st10">Encoding <tspan x="17.82" class="st5" dy="1.2em">Dependent </tspan><tspan x="22.8" class="st5" dy="1.2em">Outputs</tspan></text></g></g></svg>